<?xml version="1.0" standalone="no"?>
<!DOCTYPE svg PUBLIC "-//W3C//DTD SVG 20010904//EN"
 "http://www.w3.org/TR/2001/REC-SVG-20010904/DTD/svg10.dtd">
<svg version="1.0" xmlns="http://www.w3.org/2000/svg"
 width="625.000000pt" height="292.000000pt" viewBox="0 0 625.000000 292.000000"
 preserveAspectRatio="xMidYMid meet">

<g transform="translate(0.000000,292.000000) scale(0.100000,-0.100000)"
fill="#000000" stroke="none">
<path d="M1276 1525 c-32 -168 -59 -313 -60 -322 -1 -13 12 -16 67 -17 60 -1
68 1 72 19 3 11 19 93 36 183 18 89 34 160 37 157 3 -2 39 -84 81 -182 l76
-177 59 0 c32 -1 60 4 62 9 2 6 28 138 59 295 30 157 57 297 61 313 4 19 2 27
-8 27 -10 0 -30 -84 -71 -302 -32 -167 -62 -307 -67 -311 -4 -5 -25 -7 -46 -5
l-38 3 -81 193 c-60 145 -81 187 -86 170 l-5 -23 -9 25 c-7 20 -14 -4 -36
-116 -15 -78 -32 -167 -39 -198 l-12 -57 -41 3 c-23 2 -41 8 -41 13 1 6 25
137 55 293 l53 282 47 0 46 0 72 -169 c39 -92 79 -189 88 -215 l18 -48 41 204
c35 175 39 227 18 205 -4 -3 -63 -299 -64 -317 0 -3 -36 78 -79 180 l-79 185
-64 3 -63 3 -59 -306z"/>
<path d="M2015 1634 c-43 -22 -65 -44 -85 -84 -52 -105 -20 -238 71 -289 45
-25 130 -28 183 -6 40 17 40 18 26 46 -10 18 -13 18 -40 4 -81 -42 -179 5
-197 95 l-5 30 137 0 138 0 -6 60 c-9 104 -63 160 -154 160 -21 0 -51 -7 -68
-16z m130 -57 c18 -15 28 -36 32 -65 l6 -42 -107 0 c-120 0 -127 6 -83 71 41
61 106 76 152 36z"/>
<path d="M2840 1631 c-19 -10 -48 -37 -65 -60 -24 -34 -30 -54 -33 -110 -5
-89 19 -147 79 -190 56 -41 131 -43 195 -6 131 77 112 321 -29 374 -43 17
-108 13 -147 -8z m130 -46 c43 -22 64 -69 64 -140 0 -72 -21 -118 -65 -141
-42 -21 -88 -11 -125 27 -27 28 -29 36 -29 109 0 64 4 84 21 107 38 51 83 64
134 38z"/>
<path d="M3715 1632 c-132 -83 -137 -297 -10 -369 49 -28 140 -31 188 -7 42
22 40 19 27 43 -10 20 -13 20 -40 6 -67 -35 -158 -5 -186 60 -27 66 -29 65
121 65 l135 0 0 33 c0 54 -20 107 -54 145 -30 32 -39 36 -92 39 -46 3 -66 0
-89 -15z m127 -43 c21 -11 48 -66 48 -99 0 -19 -6 -20 -105 -20 -116 0 -119 2
-90 64 27 56 96 82 147 55z"/>
<path d="M4129 1611 c-30 -30 -39 -34 -39 -21 0 34 -12 50 -36 50 l-24 0 0
-195 0 -195 30 0 30 0 0 123 c0 107 3 126 21 157 29 47 48 59 92 60 34 0 37 2
37 30 0 28 -3 30 -36 30 -29 0 -44 -8 -75 -39z"/>
<path d="M4414 1640 c-53 -21 -81 -100 -53 -151 6 -12 48 -38 94 -59 91 -42
113 -66 94 -102 -7 -13 -17 -26 -23 -30 -22 -15 -92 -8 -131 13 -37 20 -39 20
-52 3 -19 -26 -17 -30 30 -53 53 -26 135 -28 184 -4 44 20 68 68 59 115 -8 44
-37 71 -106 98 -103 40 -123 67 -80 110 24 24 70 26 112 4 27 -14 32 -14 45
-1 9 8 12 20 8 27 -20 33 -130 51 -181 30z"/>
<path d="M4795 1636 c-50 -21 -92 -78 -105 -140 -29 -143 51 -256 183 -256 49
0 127 22 127 36 0 3 -5 14 -10 25 -10 18 -13 18 -40 4 -67 -35 -158 -5 -186
60 -27 66 -29 65 122 65 l136 0 -4 53 c-6 71 -36 128 -79 149 -40 21 -102 23
-144 4z m116 -46 c24 -13 49 -61 49 -95 l0 -25 -105 0 c-115 0 -120 3 -90 60
31 59 96 86 146 60z"/>
<path d="M2340 1634 c0 -4 25 -46 56 -94 l55 -88 -60 -97 c-34 -53 -61 -98
-61 -101 0 -2 15 -4 33 -4 30 0 35 6 78 81 l46 81 49 -81 c47 -77 50 -80 86
-81 l38 0 -63 98 -64 97 40 65 c21 36 48 80 59 98 l20 32 -36 0 c-33 0 -38 -4
-65 -57 -53 -104 -50 -104 -101 -18 -41 69 -47 75 -77 75 -18 0 -33 -3 -33 -6z"/>
<path d="M3182 1627 c2 -7 32 -95 68 -195 l65 -182 41 0 41 0 67 188 c36 103
66 190 66 195 0 4 -13 7 -29 7 -29 0 -30 -2 -87 -172 l-57 -172 -55 172 -56
172 -33 0 c-23 0 -33 -4 -31 -13z"/>
</g>
</svg>
